<svg xmlns="http://www.w3.org/2000/svg" xmlns:xlink="http://www.w3.org/1999/xlink" width="400" height="400" viewBox="0 0 400 400"><defs><linearGradient id="gradient-17" x1="0%" y1="0%" x2="100%" y2="0%" gradientTransform="rotate(76.3, 0.5, 0.5)">       <stop offset="12.6%" stop-color="rgba(44, 62, 78, 1)"/>       <stop offset="82.8%" stop-color="rgba(69, 103, 131, 1)"/>     </linearGradient></defs><g data-name="icon" fill="#ffffff" data="id:6515940" transform="translate(-22.523039190702264, -22.51953767265225) scale(4.27926315944123)">
  <defs/><path class="cls-1" d="M66.924,55.683c0-1.086-2.565-2.047-6.498-2.634h.013c-.374-2.634-.967-5.409-2.279-7.738-.465-.829-1.161-1.695-2.125-1.934-.706-.173-1.488-.022-2.078.402-.895.644-1.431,1.67-2.521,1.745h-.009c-1.096-.069-1.632-1.099-2.53-1.745-.59-.424-1.372-.574-2.078-.402-.964.239-1.661,1.105-2.125,1.934-1.312,2.329-1.906,5.104-2.279,7.738h.013c-3.933.587-6.501,1.548-6.501,2.634,0,1.786,6.941,3.233,15.501,3.233s15.498-1.447,15.498-3.233Z"/><path class="cls-1" d="M81.038,34.18c-.882,0-1.595.713-1.595,1.595s.713,1.595,1.595,1.595,1.595-.713,1.595-1.595-.713-1.595-1.595-1.595Z"/><path class="cls-1" d="M48.296,67.465c.493-.411.967-.775,1.479-1.048,1.026-.549,2.273-.549,3.299-.003.515.276.986.64,1.475,1.052,1.074.907,2.345,1.494,3.767,1.07,1.654-.493,2.351-2.006,2.766-3.541.455-1.676.731-3.331.942-5.051-13.546,1.802-21.199,0-21.199,0,.21,1.72.487,3.375.939,5.051.418,1.535,1.114,3.048,2.766,3.541,1.425.424,2.693-.163,3.767-1.07ZM58.831,62.624s.54,2.973-2.009,3.029c-2.546.06-2.945-1.642-2.945-1.642,1.501-.96,4.954-1.387,4.954-1.387ZM44.017,62.624s3.456.427,4.957,1.387c0,0-.399,1.702-2.945,1.642-2.549-.056-2.012-3.029-2.012-3.029Z"/><path class="cls-1" d="M89.056,42.88c1.809,0,3.427-.936,4.331-2.501.903-1.566.902-3.435-.002-4.998l-8.015-13.889c-.905-1.564-2.524-2.498-4.331-2.498h-.002c-1.807,0-3.424.936-4.327,2.499l-5.028,8.71H22.533c-3.496,0-6.34,2.844-6.34,6.34v39.235h-5.256c-.552,0-1,.447-1,1v3.472c0,2.622,2.134,4.755,4.757,4.755h73.464c2.624,0,4.758-2.133,4.758-4.755v-3.472c0-.553-.448-1-1-1h-5.263v-32.898h2.403ZM18.193,36.543c0-2.393,1.947-4.34,4.34-4.34h47.994l-1.834,3.177c-.905,1.564-.906,3.433-.003,4.999.904,1.565,2.522,2.501,4.331,2.501h11.632v32.898h-25.966c-.552,0-1,.447-1,1,0,1.632-1.637,1.876-2.613,1.876h-7.295c-.977,0-2.617-.244-2.617-1.876,0-.553-.448-1-1-1h-25.969v-39.235ZM90.916,77.779v2.472c0,1.52-1.237,2.755-2.758,2.755H14.694c-1.521,0-2.757-1.235-2.757-2.755v-2.472h5.251s.003,0,.005,0,.003,0,.005,0h26.083c.446,1.776,2.113,2.876,4.498,2.876h7.295c2.382,0,4.048-1.1,4.494-2.876h26.08s.003,0,.005,0,.003,0,.005,0h5.258ZM73.021,40.88c-1.085,0-2.056-.561-2.599-1.501-.542-.938-.541-2.06.002-2.998l8.018-13.888c.541-.938,1.511-1.498,2.595-1.499h.001c1.085,0,2.057.561,2.599,1.499l8.015,13.889c.542.938.543,2.059.002,2.997-.542.94-1.514,1.501-2.599,1.501h-16.035Z"/><path class="cls-1" d="M81.038,33.051c.552,0,1-.447,1-1v-4.885c0-.553-.448-1-1-1s-1,.447-1,1v4.885c0,.553.448,1,1,1Z"/>
  </g></svg>